:SAMPLES-PER-SECOND 30
:FULLY-SPECIFIED
:DEGREES
84
root  -51.4748 37.652 -6.43239 -3.03535 -22.7146 -39.4651
RightUpLeg  -59.6718 -3.03435 -1.34689
RightLeg  38.2138 4.31168 3.22921
RightFoot  13.8192 -6.91161 30.7976
RightToes  0.000482159 0.542163 -0.142577
Spine  47.3001 -1.71997 -24.7737
Spine1  3.95449 -16.8596 18.4159
HEad  1.5692 4.75401 13.5777
LeftShoulder1  7.67993 -12.5073 -41.6207
LeftArm  -37.4432 8.00646 -20.6538
LeftForeArm  9.26316 -36.7093 -7.80245
LeftHand  -0.25398 0.0180481 5.50724
RightShoulder  1.77551 1.39701 30.3588
RightArm  -2.87879 -47.3727 40.1969
RightForeArm  -34.6697 13.6848 9.73191
RightHand  -1.36795 2.69346 -20.0522
LeftUpLeg  -11.1271 -3.9751 27.6859
LeftLeg  52.9316 11.5944 16.4285
LeftFoot  -22.1089 1.41825 13.5455
LeftToes  1.06248e-005 4.65856e-005 -8.18499e-006
85
root  -54.3607 37.9311 -5.66319 -3.75787 -16.1678 -32.3862
RightUpLeg  -52.0697 2.38008 -10.3639
RightLeg  35.6795 8.26875 6.0609
RightFoot  12.9724 -6.37547 29.3644
RightToes  0.000482159 0.542163 -0.142577
Spine  44.6561 0.0918013 -31.1687
Spine1  -1.55068 -16.0128 20.1447
HEad  6.29473 -2.69417 4.41727
LeftShoulder1  8.08184 -12.1411 -45.0112
LeftArm  -39.5142 12.4594 -22.7234
LeftForeArm  14.0817 -43.2957 -9.59533
LeftHand  -0.25398 0.0180481 5.50724
RightShoulder  2.42107 2.9542 31.5648
RightArm  2.51373 -37.0456 50.6304
RightForeArm  -29.8001 25.0343 7.03032
RightHand  -1.48556 3.34531 -19.8472
LeftUpLeg  -13.2819 -5.21278 25.3287
LeftLeg  52.2621 8.85817 12.5222
LeftFoot  -24.105 1.4734 11.8289
LeftToes  1.06248e-005 4.65856e-005 -8.18499e-006
86
root  -57.0404 37.7997 -4.8714 -4.42212 -5.42451 -27.3055
RightUpLeg  -41.0348 1.69736 -14.5857
RightLeg  34.3561 18.4104 12.8294
RightFoot  18.1304 -9.2021 34.4427
RightToes  0.000482159 0.542163 -0.142577
Spine  44.6394 0.203369 -28.2205
Spine1  -5.00411 -13.2723 15.9569
HEad  8.80797 -14.1888 -1.85349
LeftShoulder1  7.83251 -11.9617 -44.0886
LeftArm  -39.4922 11.2382 -26.3944
LeftForeArm  22.2761 -48.4419 -10.995
LeftHand  -0.25398 0.0180481 5.50724
RightShoulder  2.96734 4.46977 31.2495
RightArm  -0.644071 -31.0983 49.6572
RightForeArm  -16.6611 41.6247 11.1714
RightHand  -1.60181 3.45619 -21.1242
LeftUpLeg  -17.8943 -11.907 24.2727
LeftLeg  53.5339 6.41109 9.69984
LeftFoot  -25.7055 1.26962 8.85204
LeftToes  1.06248e-005 4.65856e-005 -8.18499e-006
87
root  -59.7876 37.3827 -3.98238 -4.32335 8.50801 -21.208
RightUpLeg  -26.1532 -2.53043 -18.1201
RightLeg  29.8031 21.5096 12.7901
RightFoot  22.8654 -11.4887 36.87
RightToes  0.000482159 0.542163 -0.142577
Spine  42.9479 0.230421 -22.8222
Spine1  -1.92553 -10.2711 9.16887
HEad  8.1719 -27.4665 -5.20311
LeftShoulder1  7.45906 -11.8481 -42.1935
LeftArm  -36.1736 2.69761 -28.0457
LeftForeArm  32.9943 -52.1349 -11.7816
LeftHand  -0.25398 0.0180481 5.50724
RightShoulder  3.44909 5.90063 30.7301
RightArm  -3.69004 -30.0994 34.9966
RightForeArm  -11.2424 54.6721 16.4248
RightHand  -1.42141 2.42514 -21.2519
LeftUpLeg  -24.6895 -19.6208 23.1771
LeftLeg  54.732 2.70516 4.66136
LeftFoot  -26.5389 0.777199 4.60094
LeftToes  1.06248e-005 4.65856e-005 -8.18499e-006
88
root  -62.4916 36.9103 -3.13595 -2.17224 22.1088 -13.524
RightUpLeg  -11.8187 -3.98886 -22.1689
RightLeg  23.0295 11.8778 5.29201
RightFoot  12.9115 -7.75359 35.0391
RightToes  0.000482159 0.542163 -0.142577
Spine  41.0338 1.27225 -18.1897
Spine1  2.85654 -7.03776 4.99168
HEad  4.97662 -39.7917 -5.30406
LeftShoulder1  7.04375 -11.4143 -40.8953
LeftArm  -30.7556 -10.7228 -26.0566
LeftForeArm  42.0312 -52.3419 -11.1887
LeftHand  -0.25398 0.0180481 5.50724
RightShoulder  3.14652 5.63943 28.3513
RightArm  -0.200064 -33.1106 15.5057
RightForeArm  -18.6257 48.4486 14.3506
RightHand  -1.05727 0.730693 -18.7407
LeftUpLeg  -31.8127 -21.2823 21.1256
LeftLeg  54.7693 -2.20423 -2.85065
LeftFoot  -25.2763 0.26683 0.909059
LeftToes  1.06248e-005 4.65856e-005 -8.18499e-006
89
root  -64.9617 36.3405 -2.47443 0.804794 32.1517 -6.78381
RightUpLeg  -4.67651 -0.959117 -22.9179
RightLeg  23.761 -2.53147 -1.63139
RightFoot  -8.95512 -0.730378 31.0906
RightToes  0.000482159 0.542163 -0.142577
Spine  41.9271 0.942851 -10.6621
Spine1  4.03267 -3.45417 -0.657602
HEad  -1.80156 -48.0878 -1.83182
LeftShoulder1  6.4833 -11.3683 -37.4868
LeftArm  -28.7048 -25.6131 -22.7568
LeftForeArm  47.9733 -47.4585 -8.83067
LeftHand  -0.25398 0.0180481 5.50724
RightShoulder  2.39749 4.47523 23.8645
RightArm  10.609 -36.0195 1.47338
RightForeArm  -12.865 24.8165 7.38182
RightHand  -0.358474 1.40496 -8.68532
LeftUpLeg  -37.4456 -16.8673 18.3729
LeftLeg  55.6739 -5.91255 -8.73226
LeftFoot  -21.762 -0.0609495 -2.15887
LeftToes  1.06248e-005 4.65856e-005 -8.18499e-006
90
root  -67.0685 35.9297 -2.21884 2.52446 37.8567 -3.23601
RightUpLeg  -6.20785 -1.37335 -21.6507
RightLeg  32.3733 -8.09768 -5.62572
RightFoot  -21.9103 2.43202 27.0111
RightToes  0.000482159 0.542163 -0.142577
Spine  43.9018 -1.90974 -1.08855
Spine1  4.30972 -0.83448 -8.5582
HEad  -8.30707 -47.3542 -0.174259
LeftShoulder1  6.12469 -12.2953 -32.74
LeftArm  -36.4952 -36.1165 -16.3489
LeftForeArm  48.9445 -39.6386 -6.24765
LeftHand  -0.25398 0.0180481 5.50724
RightShoulder  1.87965 4.36795 17.3904
RightArm  6.39147 -37.1022 -6.04182
RightForeArm  22.5523 4.07192 6.48108
RightHand  0.50327 15.3716 2.15501
LeftUpLeg  -40.9304 -11.1089 16.1368
LeftLeg  55.768 -6.37885 -9.49831
LeftFoot  -16.9966 -0.1332 -4.69981
LeftToes  1.06248e-005 4.65856e-005 -8.18499e-006
91
root  -68.8838 36.0668 -2.13568 3.98936 40.6033 -1.77322
RightUpLeg  -10.436 -5.33473 -20.7326
RightLeg  38.9802 -6.92184 -6.22118
RightFoot  -22.9111 2.36439 24.4339
RightToes  0.000482159 0.542163 -0.142577
Spine  45.0402 -4.06076 2.9542
Spine1  5.50808 -0.509368 -11.6345
HEad  -16.5188 -41.6554 2.54827
LeftShoulder1  5.64154 -12.7511 -28.5866
LeftArm  -53.3737 -35.2386 -7.6906
LeftForeArm  41.5943 -34.2976 -5.24743
LeftHand  -0.25398 0.0180481 5.50724
RightShoulder  1.48357 4.70945 10.8053
RightArm  -7.00666 -32.7596 -10.2963
RightForeArm  21.7125 3.06156 1.81084
RightHand  0.878934 24.5139 2.16508
LeftUpLeg  -41.9357 -4.69751 14.1441
LeftLeg  51.6956 -5.54748 -7.05224
LeftFoot  -12.3828 0.0181648 -5.44015
LeftToes  1.06248e-005 4.65856e-005 -8.18499e-006
92
root  -70.2451 36.7511 -1.90907 6.24422 41.6868 -1.43091
RightUpLeg  -13.2302 -9.02341 -18.9115
RightLeg  38.3261 -5.59247 -5.00842
RightFoot  -20.3724 1.6476 22.3882
RightToes  0.000482159 0.542163 -0.142577
Spine  45.5353 -4.29972 1.42518
Spine1  5.87061 -2.14674 -8.27311
HEad  -20.8824 -33.5732 5.24049
LeftShoulder1  4.97245 -11.8667 -26.2303
LeftArm  -65.9799 -24.2523 -3.82371
LeftForeArm  28.8269 -34.3911 -6.00659
LeftHand  -0.25398 0.0180481 5.50724
RightShoulder  0.946671 3.03997 6.89223
RightArm  -25.4131 -16.8172 -11.3083
RightForeArm  -31.5389 12.7386 3.87933
RightHand  -0.587526 7.6931 -5.09398
LeftUpLeg  -41.2723 2.98243 12.2443
LeftLeg  44.0905 -5.00538 -4.75871
LeftFoot  -8.19312 0.187329 -4.96875
LeftToes  1.06248e-005 4.65856e-005 -8.18499e-006
93
root  -71.1078 37.7442 -1.59469 8.89687 41.7436 -1.78543
RightUpLeg  -14.223 -12.2288 -16.2259
RightLeg  32.1357 -4.35803 -3.20254
RightFoot  -18.5894 1.16848 20.2358
RightToes  0.000482159 0.542163 -0.142577
Spine  45.6026 -4.29016 -0.125918
Spine1  5.10535 -3.86002 -4.26874
HEad  -21.178 -26.8319 7.51634
LeftShoulder1  5.21596 -11.5033 -28.6274
LeftArm  -67.549 -11.4676 0.05851
LeftForeArm  21.6131 -36.2406 -6.91613
LeftHand  -0.25398 0.0180481 5.50724
RightShoulder  0.402992 -0.692131 6.92012
RightArm  -38.7386 8.81999 -12.1628
RightForeArm  -41.2524 16.6878 5.2636
RightHand  -0.293952 -1.45011 -7.12623
LeftUpLeg  -40.303 9.57467 10.6489
LeftLeg  35.2112 -4.01903 -2.71462
LeftFoot  -2.43061 0.426825 -5.19846
LeftToes  1.06248e-005 4.65856e-005 -8.18499e-006
94
root  -71.6952 38.7526 -1.29303 11.9839 41.1274 -1.56104
RightUpLeg  -14.6991 -15.7252 -14.186
RightLeg  24.8065 -2.30414 -1.41297
RightFoot  -15.0704 0.5031 18.4039
RightToes  0.000482159 0.542163 -0.142577
Spine  45.2284 -4.8033 0.540507
Spine1  4.6377 -4.17373 -3.87852
HEad  -21.6849 -23.6344 8.55004
LeftShoulder1  6.59748 -12.6239 -34.8195
LeftArm  -59.4838 -2.27611 6.66755
LeftForeArm  25.9077 -35.9819 -6.59162
LeftHand  -0.25398 0.0180481 5.50724
RightShoulder  0.0702027 -3.02851 6.91984
RightArm  -47.4837 31.0579 -15.1074
RightForeArm  -20.7231 16.7148 4.79791
RightHand  -0.894426 1.70536 -14.3251
LeftUpLeg  -39.6372 13.321 8.49376
LeftLeg  27.2343 -1.42735 -0.455409
LeftFoot  5.05911 0.669978 -4.95823
LeftToes  1.06248e-005 4.65856e-005 -8.18499e-006
